<?xml version="1.0" standalone="yes"?>
<svg xmlns="http://www.w3.org/2000/svg" width="512" height="512">
<path style="fill:#010101; stroke:none;" d="M0 0L0 263L1 263C2.63016 252.124 10.5498 244.451 18 237C33.059 221.94 50.4699 207.202 73 216.879C87.1878 222.973 98.2789 238.279 109 249L177 317L178 317L346 149C373.342 121.658 399.617 89.4088 430 65.5178C452.999 47.433 475.539 61.5319 493 79C500.642 86.6449 509.085 94.9131 511 106L512 106L512 0L0 0z"/>
<path style="fill:#2197f3; stroke:none;" d="M178 317L110 249C98.9853 237.985 87.7851 222.77 73 216.763C49.6559 207.278 33.5259 221.542 18 236.999C9.36781 245.593 0.674582 253.966 0.0401235 267C-1.10172 290.458 13.4682 303.468 29 319L89 379L144 434C154.818 444.818 164.506 456.125 181 454.91C192.878 454.034 200.194 443.806 208 436L260 384L446 198L491 153C499.9 144.101 510.197 135.342 511.816 122C514.234 102.066 504.368 90.3684 491 77C476.056 62.0564 459.614 51.0327 438 60.233C420.535 67.6673 406.186 87.8143 393 101L302 192L220 274C206.272 287.728 189.177 301.132 178 317z"/>
<path style="fill:#01ffff; stroke:none;" d="M437 60L438 61L437 60M476 63L477 64L476 63z"/>
<path style="fill:#1d92f3; stroke:none;" d="M429 65L430 66L429 65M428 66L429 67L428 66z"/>
<path style="fill:#01ffff; stroke:none;" d="M481 67L482 68L481 67z"/>
<path style="fill:#1d92f3; stroke:none;" d="M482 68L483 69L482 68M483 69L484 70L483 69M484 70L485 71L484 70M485 71L486 72L485 71M486 72L487 73L486 72M487 73L488 74L487 73M488 74L489 75L488 74M489 75L490 76L489 75M490 76L491 77L490 76M491 77L492 78L491 77M492 78L493 79L492 78M493 79L494 80L493 79M494 80L495 81L494 80M495 81L496 82L495 81M496 82L497 83L496 82M497 83L498 84L497 83M498 84L499 85L498 84M499 85L500 86L499 85M500 86L501 87L500 86M501 87L502 88L501 87M504 91L505 92L504 91z"/>
<path style="fill:#2899ef; stroke:none;" d="M505 92L506 93L505 92z"/>
<path style="fill:#01ffff; stroke:none;" d="M508 97L509 98L508 97z"/>
<path style="fill:#1d92f3; stroke:none;" d="M510 102L511 103L510 102z"/>
<path style="fill:#010101; stroke:none;" d="M511 124C508.422 141.2 489.552 154.448 478 166L391 253L236 408C220.244 423.756 198.035 457.943 173 454.815C159.56 453.136 148.914 437.914 140 429L70 359L22 311C13.49 302.49 3.21686 293.436 1 281L0 281L0 512L512 512L512 238L512 159L511 124z"/>
<path style="fill:#1d92f3; stroke:none;" d="M510 127L511 128L510 127z"/>
<path style="fill:#01ffff; stroke:none;" d="M509 130L510 131L509 130z"/>
<path style="fill:#1d92f3; stroke:none;" d="M508 132L509 133L508 132M507 134L508 135L507 134z"/>
<path style="fill:#2899ef; stroke:none;" d="M505 137L506 138L505 137z"/>
<path style="fill:#1d92f3; stroke:none;" d="M502 141L503 142L502 141z"/>
<path style="fill:#2899ef; stroke:none;" d="M500 143L501 144L500 143M499 144L500 145L499 144M498 145L499 146L498 145M497 146L498 147L497 146M496 147L497 148L496 147M495 148L496 149L495 148M494 149L495 150L494 149M493 150L494 151L493 150M492 151L493 152L492 151M491 152L492 153L491 152M490 153L491 154L490 153M489 154L490 155L489 154M488 155L489 156L488 155M487 156L488 157L487 156M486 157L487 158L486 157M485 158L486 159L485 158M484 159L485 160L484 159M483 160L484 161L483 160M482 161L483 162L482 161M481 162L482 163L481 162M480 163L481 164L480 163M479 164L480 165L479 164M478 165L479 166L478 165M477 166L478 167L477 166M476 167L477 168L476 167M475 168L476 169L475 168M474 169L475 170L474 169M473 170L474 171L473 170M472 171L473 172L472 171M471 172L472 173L471 172M470 173L471 174L470 173M469 174L470 175L469 174M468 175L469 176L468 175M467 176L468 177L467 176M466 177L467 178L466 177M465 178L466 179L465 178M464 179L465 180L464 179M463 180L464 181L463 180M462 181L463 182L462 181M461 182L462 183L461 182M460 183L461 184L460 183M459 184L460 185L459 184M458 185L459 186L458 185M457 186L458 187L457 186M456 187L457 188L456 187M455 188L456 189L455 188M454 189L455 190L454 189M453 190L454 191L453 190M452 191L453 192L452 191M451 192L452 193L451 192M450 193L451 194L450 193M449 194L450 195L449 194M448 195L449 196L448 195M447 196L448 197L447 196M446 197L447 198L446 197M445 198L446 199L445 198M444 199L445 200L444 199M443 200L444 201L443 200M442 201L443 202L442 201M441 202L442 203L441 202M440 203L441 204L440 203M439 204L440 205L439 204M438 205L439 206L438 205M437 206L438 207L437 206M436 207L437 208L436 207M435 208L436 209L435 208M434 209L435 210L434 209M433 210L434 211L433 210M432 211L433 212L432 211M431 212L432 213L431 212M430 213L431 214L430 213M65 214L66 215L65 214M429 214L430 215L429 214M69 215L70 216L69 215M428 215L429 216L428 215z"/>
<path style="fill:#1d92f3; stroke:none;" d="M72 216L73 217L72 216z"/>
<path style="fill:#2899ef; stroke:none;" d="M427 216L428 217L427 216M426 217L427 218L426 217M76 218L77 219L76 218M425 218L426 219L425 218z"/>
<path style="fill:#1d92f3; stroke:none;" d="M78 219L79 220L78 219z"/>
<path style="fill:#2899ef; stroke:none;" d="M424 219L425 220L424 219z"/>
<path style="fill:#1d92f3; stroke:none;" d="M79 220L80 221L79 220z"/>
<path style="fill:#2899ef; stroke:none;" d="M423 220L424 221L423 220z"/>
<path style="fill:#01ffff; stroke:none;" d="M81 221L82 222L81 221z"/>
<path style="fill:#2899ef; stroke:none;" d="M422 221L423 222L422 221M421 222L422 223L421 222M420 223L421 224L420 223M30 224L31 225L30 224M419 224L420 225L419 224M29 225L30 226L29 225M418 225L419 226L418 225z"/>
<path style="fill:#1d92f3; stroke:none;" d="M28 226L29 227L28 226z"/>
<path style="fill:#2899ef; stroke:none;" d="M417 226L418 227L417 226z"/>
<path style="fill:#1d92f3; stroke:none;" d="M27 227L28 228L27 227z"/>
<path style="fill:#2899ef; stroke:none;" d="M416 227L417 228L416 227z"/>
<path style="fill:#1d92f3; stroke:none;" d="M26 228L27 229L26 228z"/>
<path style="fill:#2899ef; stroke:none;" d="M415 228L416 229L415 228z"/>
<path style="fill:#1d92f3; stroke:none;" d="M25 229L26 230L25 229z"/>
<path style="fill:#2899ef; stroke:none;" d="M414 229L415 230L414 229z"/>
<path style="fill:#1d92f3; stroke:none;" d="M24 230L25 231L24 230z"/>
<path style="fill:#2899ef; stroke:none;" d="M413 230L414 231L413 230z"/>
<path style="fill:#1d92f3; stroke:none;" d="M23 231L24 232L23 231z"/>
<path style="fill:#2899ef; stroke:none;" d="M412 231L413 232L412 231z"/>
<path style="fill:#1d92f3; stroke:none;" d="M22 232L23 233L22 232z"/>
<path style="fill:#2899ef; stroke:none;" d="M411 232L412 233L411 232z"/>
<path style="fill:#1d92f3; stroke:none;" d="M21 233L22 234L21 233z"/>
<path style="fill:#2899ef; stroke:none;" d="M410 233L411 234L410 233z"/>
<path style="fill:#1d92f3; stroke:none;" d="M20 234L21 235L20 234z"/>
<path style="fill:#2899ef; stroke:none;" d="M409 234L410 235L409 234z"/>
<path style="fill:#1d92f3; stroke:none;" d="M19 235L20 236L19 235z"/>
<path style="fill:#2899ef; stroke:none;" d="M408 235L409 236L408 235z"/>
<path style="fill:#1d92f3; stroke:none;" d="M18 236L19 237L18 236z"/>
<path style="fill:#2899ef; stroke:none;" d="M407 236L408 237L407 236z"/>
<path style="fill:#1d92f3; stroke:none;" d="M17 237L18 238L17 237z"/>
<path style="fill:#2899ef; stroke:none;" d="M406 237L407 238L406 237z"/>
<path style="fill:#1d92f3; stroke:none;" d="M16 238L17 239L16 238z"/>
<path style="fill:#2899ef; stroke:none;" d="M405 238L406 239L405 238z"/>
<path style="fill:#1d92f3; stroke:none;" d="M15 239L16 240L15 239z"/>
<path style="fill:#2899ef; stroke:none;" d="M404 239L405 240L404 239z"/>
<path style="fill:#1d92f3; stroke:none;" d="M14 240L15 241L14 240z"/>
<path style="fill:#2899ef; stroke:none;" d="M403 240L404 241L403 240z"/>
<path style="fill:#1d92f3; stroke:none;" d="M13 241L14 242L13 241z"/>
<path style="fill:#2899ef; stroke:none;" d="M402 241L403 242L402 241z"/>
<path style="fill:#1d92f3; stroke:none;" d="M12 242L13 243L12 242z"/>
<path style="fill:#2899ef; stroke:none;" d="M401 242L402 243L401 242z"/>
<path style="fill:#1d92f3; stroke:none;" d="M11 243L12 244L11 243z"/>
<path style="fill:#2899ef; stroke:none;" d="M400 243L401 244L400 243M399 244L400 245L399 244M398 245L399 246L398 245z"/>
<path style="fill:#01ffff; stroke:none;" d="M8 246L9 247L8 246z"/>
<path style="fill:#2899ef; stroke:none;" d="M397 246L398 247L397 246M396 247L397 248L396 247M395 248L396 249L395 248M394 249L395 250L394 249M393 250L394 251L393 250M392 251L393 252L392 251M391 252L392 253L391 252M390 253L391 254L390 253M3 254L4 255L3 254M389 254L390 255L389 254M388 255L389 256L388 255z"/>
<path style="fill:#01ffff; stroke:none;" d="M2 256L3 257L2 256z"/>
<path style="fill:#2899ef; stroke:none;" d="M387 256L388 257L387 256M386 257L387 258L386 257M385 258L386 259L385 258M1 259L2 260L1 259M384 259L385 260L384 259M383 260L384 261L383 260M382 261L383 262L382 261M381 262L382 263L381 262M380 263L381 264L380 263M379 264L380 265L379 264M378 265L379 266L378 265M377 266L378 267L377 266M376 267L377 268L376 267M375 268L376 269L375 268M374 269L375 270L374 269M373 270L374 271L373 270M372 271L373 272L372 271M371 272L372 273L371 272M370 273L371 274L370 273M369 274L370 275L369 274M368 275L369 276L368 275M367 276L368 277L367 276M366 277L367 278L366 277M365 278L366 279L365 278M364 279L365 280L364 279z"/>
<path style="fill:#1d92f3; stroke:none;" d="M0 280L1 281L0 280z"/>
<path style="fill:#2899ef; stroke:none;" d="M363 280L364 281L363 280M362 281L363 282L362 281M361 282L362 283L361 282M360 283L361 284L360 283z"/>
<path style="fill:#01ffff; stroke:none;" d="M1 284L2 285L1 284z"/>
<path style="fill:#2899ef; stroke:none;" d="M359 284L360 285L359 284M358 285L359 286L358 285z"/>
<path style="fill:#1d92f3; stroke:none;" d="M2 286L3 287L2 286z"/>
<path style="fill:#2899ef; stroke:none;" d="M357 286L358 287L357 286M356 287L357 288L356 287M355 288L356 289L355 288M354 289L355 290L354 289M353 290L354 291L353 290M352 291L353 292L352 291M351 292L352 293L351 292M350 293L351 294L350 293z"/>
<path style="fill:#1d92f3; stroke:none;" d="M6 294L7 295L6 294z"/>
<path style="fill:#2899ef; stroke:none;" d="M349 294L350 295L349 294M348 295L349 296L348 295M347 296L348 297L347 296M346 297L347 298L346 297M345 298L346 299L345 298z"/>
<path style="fill:#01ffff; stroke:none;" d="M10 299L11 300L10 299z"/>
<path style="fill:#2899ef; stroke:none;" d="M344 299L345 300L344 299M343 300L344 301L343 300M342 301L343 302L342 301M341 302L342 303L341 302M340 303L341 304L340 303M339 304L340 305L339 304M338 305L339 306L338 305M337 306L338 307L337 306M336 307L337 308L336 307M335 308L336 309L335 308M334 309L335 310L334 309M333 310L334 311L333 310M332 311L333 312L332 311M331 312L332 313L331 312M330 313L331 314L330 313M329 314L330 315L329 314M328 315L329 316L328 315M327 316L328 317L327 316M326 317L327 318L326 317M325 318L326 319L325 318M324 319L325 320L324 319M323 320L324 321L323 320M322 321L323 322L322 321M321 322L322 323L321 322M320 323L321 324L320 323M319 324L320 325L319 324M318 325L319 326L318 325M317 326L318 327L317 326M316 327L317 328L316 327M315 328L316 329L315 328M314 329L315 330L314 329M313 330L314 331L313 330M312 331L313 332L312 331M311 332L312 333L311 332M310 333L311 334L310 333M309 334L310 335L309 334M308 335L309 336L308 335M307 336L308 337L307 336M306 337L307 338L306 337M305 338L306 339L305 338M304 339L305 340L304 339M303 340L304 341L303 340M302 341L303 342L302 341M301 342L302 343L301 342M300 343L301 344L300 343M299 344L300 345L299 344M298 345L299 346L298 345M297 346L298 347L297 346M296 347L297 348L296 347M295 348L296 349L295 348M294 349L295 350L294 349M293 350L294 351L293 350M292 351L293 352L292 351M291 352L292 353L291 352M290 353L291 354L290 353M289 354L290 355L289 354M288 355L289 356L288 355M287 356L288 357L287 356M286 357L287 358L286 357M285 358L286 359L285 358M284 359L285 360L284 359M283 360L284 361L283 360M282 361L283 362L282 361M281 362L282 363L281 362M280 363L281 364L280 363M279 364L280 365L279 364M278 365L279 366L278 365M277 366L278 367L277 366M276 367L277 368L276 367M275 368L276 369L275 368M274 369L275 370L274 369M273 370L274 371L273 370M272 371L273 372L272 371M271 372L272 373L271 372M270 373L271 374L270 373M269 374L270 375L269 374M268 375L269 376L268 375M267 376L268 377L267 376M266 377L267 378L266 377M265 378L266 379L265 378M264 379L265 380L264 379M263 380L264 381L263 380M262 381L263 382L262 381M261 382L262 383L261 382M260 383L261 384L260 383M259 384L260 385L259 384M258 385L259 386L258 385M257 386L258 387L257 386M256 387L257 388L256 387M255 388L256 389L255 388M254 389L255 390L254 389M253 390L254 391L253 390M252 391L253 392L252 391M251 392L252 393L251 392M250 393L251 394L250 393M249 394L250 395L249 394M248 395L249 396L248 395M247 396L248 397L247 396M246 397L247 398L246 397M245 398L246 399L245 398M244 399L245 400L244 399M243 400L244 401L243 400M242 401L243 402L242 401M241 402L242 403L241 402M240 403L241 404L240 403M239 404L240 405L239 404M238 405L239 406L238 405M237 406L238 407L237 406M236 407L237 408L236 407M235 408L236 409L235 408M234 409L235 410L234 409M233 410L234 411L233 410M232 411L233 412L232 411M231 412L232 413L231 412M230 413L231 414L230 413M229 414L230 415L229 414M228 415L229 416L228 415M227 416L228 417L227 416M226 417L227 418L226 417M225 418L226 419L225 418M224 419L225 420L224 419M223 420L224 421L223 420M222 421L223 422L222 421M221 422L222 423L221 422M220 423L221 424L220 423M219 424L220 425L219 424M218 425L219 426L218 425M217 426L218 427L217 426M216 427L217 428L216 427M215 428L216 429L215 428M214 429L215 430L214 429M213 430L214 431L213 430M212 431L213 432L212 431M211 432L212 433L211 432M210 433L211 434L210 433M209 434L210 435L209 434M208 435L209 436L208 435M207 436L208 437L207 436M206 437L207 438L206 437M205 438L206 439L205 438M204 439L205 440L204 439M203 440L204 441L203 440M202 441L203 442L202 441M201 442L202 443L201 442M200 443L201 444L200 443M199 444L200 445L199 444M198 445L199 446L198 445M197 446L198 447L197 446z"/>
<path style="fill:#1d92f3; stroke:none;" d="M158 447L159 448L158 447z"/>
<path style="fill:#2899ef; stroke:none;" d="M196 447L197 448L196 447z"/>
<path style="fill:#01ffff; stroke:none;" d="M159 448L160 449L159 448z"/>
<path style="fill:#1d92f3; stroke:none;" d="M194 449L195 450L194 449M163 451L164 452L163 451z"/>
<path style="fill:#2899ef; stroke:none;" d="M191 451L192 452L191 451z"/>
<path style="fill:#1d92f3; stroke:none;" d="M165 452L166 453L165 452z"/>
<path style="fill:#01ffff; stroke:none;" d="M170 454L171 455L170 454z"/>
<path style="fill:#1d92f3; stroke:none;" d="M184 454L185 455L184 454z"/>
</svg>
